{
  "accessors": [
    {
      "bufferView": 2,
      "componentType": 5126,
      "count": 8427,
      "max": [
        0.32098999619483948,
        0.28270098567008972,
        -0.16169799864292145
      ],
      "min": [
        -0.17040899395942688,
        -0.28164699673652649,
        -0.39255499839782715
      ],
      "type": "VEC3"
    },
    {
      "bufferView": 2,
      "byteOffset": 101124,
      "componentType": 5126,
      "count": 8427,
      "max": [
        0.99135494232177734,
        1,
        0.94785374402999878
      ],
      "min": [
        -1,
        -1,
        -0.99999856948852539
      ],
      "type": "VEC3"
    },
    {
      "bufferView": 3,
      "componentType": 5126,
      "count": 8427,
      "max": [
        0.99282371997833252,
        0.95283520221710205,
        0.93818265199661255,
        1
      ],
      "min": [
        -0.99999958276748657,
        -0.99533277750015259,
        -1,
        1
      ],
      "type": "VEC4"
    },
    {
      "bufferView": 1,
      "componentType": 5126,
      "count": 8427,
      "max": [
        0.96670597791671753,
        0.96659398078918457
      ],
      "min": [
        0.03329399973154068,
        0.033406000584363937
      ],
      "type": "VEC2"
    },
    {
      "bufferView": 0,
      "componentType": 5125,
      "count": 44352,
      "max": [
        8426
      ],
      "min": [
        0
      ],
      "type": "SCALAR"
    },
    {
      "bufferView": 2,
      "byteOffset": 202248,
      "componentType": 5126,
      "count": 21385,
      "max": [
        0.25349199771881104,
        0.25349101424217224,
        0.44291201233863831
      ],
      "min": [
        -0.25349199771881104,
        -0.25349199771881104,
        -0.30081000924110413
      ],
      "type": "VEC3"
    },
    {
      "bufferView": 2,
      "byteOffset": 458868,
      "componentType": 5126,
      "count": 21385,
      "max": [
        1,
        1,
        1
      ],
      "min": [
        -1,
        -1,
        -0.99626630544662476
      ],
      "type": "VEC3"
    },
    {
      "bufferView": 3,
      "byteOffset": 134832,
      "componentType": 5126,
      "count": 21385,
      "max": [
        0.99998509883880615,
        0.99998509883880615,
        1,
        1
      ],
      "min": [
        -0.99998509883880615,
        -0.99999254941940308,
        -1,
        -1
      ],
      "type": "VEC4"
    },
    {
      "bufferView": 1,
      "byteOffset": 67416,
      "componentType": 5126,
      "count": 21385,
      "max": [
        0.98211902379989624,
        0.98218798637390137
      ],
      "min": [
        0.017775999382138252,
        0.017812000587582588
      ],
      "type": "VEC2"
    },
    {
      "bufferView": 0,
      "byteOffset": 177408,
      "componentType": 5125,
      "count": 92367,
      "max": [
        21384
      ],
      "min": [
        0
      ],
      "type": "SCALAR"
    }
  ],
  "asset": {
    "extras": {
      "author": "siotech2011 (https://sketchfab.com/siotech2011)",
      "license": "CC-BY-4.0 (http://creativecommons.org/licenses/by/4.0/)",
      "source": "https://sketchfab.com/models/9f1d845436db4672a1335b77e94ef20e",
      "title": "Fern Stand"
    },
    "generator": "Sketchfab-3.21.1",
    "version": "2.0"
  },
  "bufferViews": [
    {
      "buffer": 0,
      "byteLength": 546876,
      "byteOffset": 0,
      "name": "floatBufferViews",
      "target": 34963
    },
    {
      "buffer": 0,
      "byteLength": 238496,
      "byteOffset": 546876,
      "byteStride": 8,
      "name": "floatBufferViews",
      "target": 34962
    },
    {
      "buffer": 0,
      "byteLength": 715488,
      "byteOffset": 785372,
      "byteStride": 12,
      "name": "floatBufferViews",
      "target": 34962
    },
    {
      "buffer": 0,
      "byteLength": 476992,
      "byteOffset": 1500860,
      "byteStride": 16,
      "name": "floatBufferViews",
      "target": 34962
    }
  ],
  "buffers": [
    {
      "byteLength": 1977852,
      "uri": "scene.bin"
    }
  ],
  "images": [
    {
      "uri": "textures/Material.001_baseColor.png"
    },
    {
      "uri": "textures/Material_normal.png"
    },
    {
      "uri": "textures/Material_baseColor.png"
    }
  ],
  "materials": [
    {
      "doubleSided": true,
      "emissiveFactor": [
        0,
        0,
        0
      ],
      "name": "Material",
      "normalTexture": {
        "index": 1,
        "scale": 0,
        "texCoord": 0
      },
      "pbrMetallicRoughness": {
        "baseColorFactor": [
          0.29999999999999999,
          0.29999999999999999,
          0.29999999999999999,
          1
        ],
        "baseColorTexture": {
          "index": 2,
          "texCoord": 0
        },
        "metallicFactor": 0,
        "roughnessFactor": 0.59999999999999998
      }
    },
    {
      "doubleSided": true,
      "name": "Material.001",
      "pbrMetallicRoughness": {
        "baseColorFactor": [
          0.29999999999999999,
          0.29999999999999999,
          0.29999999999999999,
          1
        ],
        "baseColorTexture": {
          "index": 0,
          "texCoord": 0
        },
        "metallicFactor": 0,
        "roughnessFactor": 0.2665777439
      }
    }
  ],
  "meshes": [
    {
      "primitives": [
        {
          "attributes": {
            "NORMAL": 1,
            "POSITION": 0,
            "TANGENT": 2,
            "TEXCOORD_0": 3
          },
          "indices": 4,
          "material": 0,
          "mode": 4
        }
      ]
    },
    {
      "primitives": [
        {
          "attributes": {
            "NORMAL": 6,
            "POSITION": 5,
            "TANGENT": 7,
            "TEXCOORD_0": 8
          },
          "indices": 9,
          "material": 1,
          "mode": 4
        }
      ]
    }
  ],
  "nodes": [
    {
      "children": [
        1
      ],
      "name": "RootNode (gltf orientation matrix)",
      "rotation": [
        -0.70710678118654746,
        -0,
        -0,
        0.70710678118654757
      ]
    },
    {
      "children": [
        2
      ],
      "name": "RootNode (model correction matrix)"
    },
    {
      "children": [
        3,
        4
      ],
      "name": "fern-stand-04-out.obj.cleaner.materialmerger.gles"
    },
    {
      "mesh": 0,
      "name": ""
    },
    {
      "mesh": 1,
      "name": ""
    }
  ],
  "samplers": [
    {
      "magFilter": 9729,
      "minFilter": 9987,
      "wrapS": 10497,
      "wrapT": 10497
    }
  ],
  "scene": 0,
  "scenes": [
    {
      "name": "OSG_Scene",
      "nodes": [
        0
      ]
    }
  ],
  "textures": [
    {
      "sampler": 0,
      "source": 0
    },
    {
      "sampler": 0,
      "source": 1
    },
    {
      "sampler": 0,
      "source": 2
    }
  ]
}

