{
  "accessors": [
    {
      "bufferView": 2,
      "componentType": 5126,
      "count": 1768,
      "max": [
        0.002833500038832426,
        1.1946337223052979,
        0.002824596129357815
      ],
      "min": [
        -0.002833500038832426,
        -0.0003912834217771888,
        -0.0028246520087122917
      ],
      "type": "VEC3"
    },
    {
      "bufferView": 2,
      "byteOffset": 21216,
      "componentType": 5126,
      "count": 1768,
      "max": [
        0.9870091080665588,
        0.9990910291671753,
        0.9985250234603882
      ],
      "min": [
        -0.9870091080665588,
        -0.9990880489349365,
        -0.9985266923904419
      ],
      "type": "VEC3"
    },
    {
      "bufferView": 1,
      "componentType": 5126,
      "count": 1768,
      "max": [
        1.0,
        1.0
      ],
      "min": [
        -0.01594431698322296,
        0.010297444649040699
      ],
      "type": "VEC2"
    },
    {
      "bufferView": 0,
      "componentType": 5125,
      "count": 6744,
      "type": "SCALAR"
    },
    {
      "bufferView": 2,
      "byteOffset": 42432,
      "componentType": 5126,
      "count": 1768,
      "max": [
        0.0028335002716630697,
        1.1946332454681396,
        0.002824596129357815
      ],
      "min": [
        -0.0028335002716630697,
        -0.0003912834217771888,
        -0.0028246555011719465
      ],
      "type": "VEC3"
    },
    {
      "bufferView": 2,
      "byteOffset": 63648,
      "componentType": 5126,
      "count": 1768,
      "max": [
        0.9870091080665588,
        0.9990898370742798,
        0.9985266923904419
      ],
      "min": [
        -0.9870091080665588,
        -0.9990880489349365,
        -0.9985266923904419
      ],
      "type": "VEC3"
    },
    {
      "bufferView": 1,
      "byteOffset": 14144,
      "componentType": 5126,
      "count": 1768,
      "max": [
        1.0,
        1.0
      ],
      "min": [
        -0.01594431698322296,
        0.010297444649040699
      ],
      "type": "VEC2"
    },
    {
      "bufferView": 0,
      "byteOffset": 26976,
      "componentType": 5125,
      "count": 6744,
      "type": "SCALAR"
    },
    {
      "bufferView": 2,
      "byteOffset": 84864,
      "componentType": 5126,
      "count": 1768,
      "max": [
        0.002833500038832426,
        1.1946332454681396,
        0.002824596129357815
      ],
      "min": [
        -0.00283351493999362,
        -0.0003912834217771888,
        -0.0028246555011719465
      ],
      "type": "VEC3"
    },
    {
      "bufferView": 2,
      "byteOffset": 106080,
      "componentType": 5126,
      "count": 1768,
      "max": [
        0.9870091080665588,
        0.9990898370742798,
        0.9985266923904419
      ],
      "min": [
        -0.9870091080665588,
        -0.9990880489349365,
        -0.9985266923904419
      ],
      "type": "VEC3"
    },
    {
      "bufferView": 1,
      "byteOffset": 28288,
      "componentType": 5126,
      "count": 1768,
      "max": [
        1.0,
        1.0
      ],
      "min": [
        -0.01594431698322296,
        0.010297444649040699
      ],
      "type": "VEC2"
    },
    {
      "bufferView": 0,
      "byteOffset": 53952,
      "componentType": 5125,
      "count": 6744,
      "type": "SCALAR"
    },
    {
      "bufferView": 2,
      "byteOffset": 127296,
      "componentType": 5126,
      "count": 4472,
      "max": [
        0.06139200180768967,
        0.03469587862491608,
        1.0129998922348022
      ],
      "min": [
        -0.008000006899237633,
        -0.03469587862491608,
        -0.001000010408461094
      ],
      "type": "VEC3"
    },
    {
      "bufferView": 2,
      "byteOffset": 180960,
      "componentType": 5126,
      "count": 4472,
      "max": [
        0.9951848983764648,
        0.9999735355377197,
        0.9990306496620178
      ],
      "min": [
        -0.9951848387718201,
        -0.9951852560043335,
        -0.999086856842041
      ],
      "type": "VEC3"
    },
    {
      "bufferView": 1,
      "byteOffset": 42432,
      "componentType": 5126,
      "count": 4472,
      "max": [
        1.0007069110870361,
        1.0
      ],
      "min": [
        -0.0037365113385021687,
        0.0
      ],
      "type": "VEC2"
    },
    {
      "bufferView": 0,
      "byteOffset": 80928,
      "componentType": 5125,
      "count": 12240,
      "type": "SCALAR"
    },
    {
      "bufferView": 2,
      "byteOffset": 234624,
      "componentType": 5126,
      "count": 195,
      "max": [
        0.10000000149011612,
        -0.01500000711530447,
        0.5049999952316284
      ],
      "min": [
        -0.10000000149011612,
        -0.023653628304600716,
        -0.5049999952316284
      ],
      "type": "VEC3"
    },
    {
      "bufferView": 2,
      "byteOffset": 236964,
      "componentType": 5126,
      "count": 195,
      "max": [
        0.9898734092712402,
        0.9898734092712402,
        0.9898734092712402
      ],
      "min": [
        -0.9898734092712402,
        -0.9898734092712402,
        -0.9898734092712402
      ],
      "type": "VEC3"
    },
    {
      "bufferView": 1,
      "byteOffset": 78208,
      "componentType": 5126,
      "count": 195,
      "max": [
        0.875,
        1.0
      ],
      "min": [
        0.125,
        0.0
      ],
      "type": "VEC2"
    },
    {
      "bufferView": 0,
      "byteOffset": 129888,
      "componentType": 5125,
      "count": 900,
      "type": "SCALAR"
    },
    {
      "bufferView": 2,
      "byteOffset": 239304,
      "componentType": 5126,
      "count": 2450,
      "max": [
        0.007999991066753864,
        0.08197180181741714,
        1.0019999742507935
      ],
      "min": [
        -0.008000009693205357,
        -0.08197180181741714,
        -0.007999999448657036
      ],
      "type": "VEC3"
    },
    {
      "bufferView": 2,
      "byteOffset": 268704,
      "componentType": 5126,
      "count": 2450,
      "max": [
        1.0,
        0.9950810074806213,
        0.9950810074806213
      ],
      "min": [
        -1.0,
        -0.99867182970047,
        -0.9950810074806213
      ],
      "type": "VEC3"
    },
    {
      "bufferView": 1,
      "byteOffset": 79768,
      "componentType": 5126,
      "count": 2450,
      "max": [
        1.000792384147644,
        1.0042544603347778
      ],
      "min": [
        -0.0007948169950395823,
        -0.0006224180688150227
      ],
      "type": "VEC2"
    },
    {
      "bufferView": 0,
      "byteOffset": 133488,
      "componentType": 5125,
      "count": 9660,
      "type": "SCALAR"
    },
    {
      "bufferView": 2,
      "byteOffset": 298104,
      "componentType": 5126,
      "count": 181,
      "max": [
        0.10000000149011612,
        0.014999999664723873,
        0.5049999952316284
      ],
      "min": [
        -0.10000000149011612,
        -0.014999999664723873,
        -0.5049999952316284
      ],
      "type": "VEC3"
    },
    {
      "bufferView": 2,
      "byteOffset": 300276,
      "componentType": 5126,
      "count": 181,
      "max": [
        0.983065128326416,
        0.9830641746520996,
        0.9830690026283264
      ],
      "min": [
        -0.983065128326416,
        -0.9830641746520996,
        -0.9830690026283264
      ],
      "type": "VEC3"
    },
    {
      "bufferView": 1,
      "byteOffset": 99368,
      "componentType": 5126,
      "count": 181,
      "max": [
        0.8737483024597168,
        0.9987483620643616
      ],
      "min": [
        0.125,
        0.0
      ],
      "type": "VEC2"
    },
    {
      "bufferView": 0,
      "byteOffset": 172128,
      "componentType": 5125,
      "count": 564,
      "type": "SCALAR"
    }
  ],
  "asset": {
    "extras": {
      "author": "LowKenEn (https://sketchfab.com/LowKenEn)",
      "license": "CC-BY-4.0 (http://creativecommons.org/licenses/by/4.0/)",
      "source": "https://sketchfab.com/3d-models/ikea-fjallbo-wall-shelf-43479fde657649ddaf02d2db738407ee",
      "title": "IKEA FJÄLLBO WALL SHELF"
    },
    "generator": "Sketchfab-11.53.2",
    "version": "2.0"
  },
  "bufferViews": [
    {
      "buffer": 0,
      "byteLength": 174384,
      "name": "floatBufferViews",
      "target": 34963
    },
    {
      "buffer": 0,
      "byteLength": 100816,
      "byteOffset": 174384,
      "byteStride": 8,
      "name": "floatBufferViews",
      "target": 34962
    },
    {
      "buffer": 0,
      "byteLength": 302448,
      "byteOffset": 275200,
      "byteStride": 12,
      "name": "floatBufferViews",
      "target": 34962
    }
  ],
  "buffers": [
    {
      "byteLength": 577648,
      "uri": "scene.bin"
    }
  ],
  "materials": [
    {
      "doubleSided": true,
      "name": "Matte",
      "pbrMetallicRoughness": {
        "baseColorFactor": [
          0.0,
          0.0,
          0.0,
          1.0
        ],
        "metallicFactor": 0.520661,
        "roughnessFactor": 0.647934
      }
    },
    {
      "doubleSided": true,
      "name": "WoodFineDark004_3K",
      "pbrMetallicRoughness": {
        "metallicFactor": 0.0
      }
    }
  ],
  "meshes": [
    {
      "name": "Object_0",
      "primitives": [
        {
          "attributes": {
            "NORMAL": 1,
            "POSITION": 0,
            "TEXCOORD_0": 2
          },
          "indices": 3,
          "material": 0,
          "mode": 4
        }
      ]
    },
    {
      "name": "Object_1",
      "primitives": [
        {
          "attributes": {
            "NORMAL": 5,
            "POSITION": 4,
            "TEXCOORD_0": 6
          },
          "indices": 7,
          "material": 0,
          "mode": 4
        }
      ]
    },
    {
      "name": "Object_2",
      "primitives": [
        {
          "attributes": {
            "NORMAL": 9,
            "POSITION": 8,
            "TEXCOORD_0": 10
          },
          "indices": 11,
          "material": 0,
          "mode": 4
        }
      ]
    },
    {
      "name": "Object_3",
      "primitives": [
        {
          "attributes": {
            "NORMAL": 13,
            "POSITION": 12,
            "TEXCOORD_0": 14
          },
          "indices": 15,
          "material": 0,
          "mode": 4
        }
      ]
    },
    {
      "name": "Object_4",
      "primitives": [
        {
          "attributes": {
            "NORMAL": 17,
            "POSITION": 16,
            "TEXCOORD_0": 18
          },
          "indices": 19,
          "material": 0,
          "mode": 4
        }
      ]
    },
    {
      "name": "Object_5",
      "primitives": [
        {
          "attributes": {
            "NORMAL": 21,
            "POSITION": 20,
            "TEXCOORD_0": 22
          },
          "indices": 23,
          "material": 0,
          "mode": 4
        }
      ]
    },
    {
      "name": "Object_6",
      "primitives": [
        {
          "attributes": {
            "NORMAL": 25,
            "POSITION": 24,
            "TEXCOORD_0": 26
          },
          "indices": 27,
          "material": 1,
          "mode": 4
        }
      ]
    }
  ],
  "nodes": [
    {
      "children": [
        1
      ],
      "matrix": [
        1.0,
        -1.6081226229577292e-16,
        -3.5707495248565405e-32,
        0.0,
        0.0,
        2.220446049250313e-16,
        -1.0,
        0.0,
        1.6081226229577292e-16,
        1.0,
        2.220446049250313e-16,
        0.0,
        -1.6126514698986815e-18,
        -1.232595164407831e-32,
        5.551115123125783e-17,
        1.0
      ],
      "name": "Sketchfab_model"
    },
    {
      "children": [
        2
      ],
      "name": "root"
    },
    {
      "children": [
        3,
        5,
        7,
        9,
        11,
        13,
        15
      ],
      "matrix": [
        1.0,
        0.0,
        0.0,
        0.0,
        0.0,
        2.220446049250313e-16,
        1.0,
        0.0,
        0.0,
        -1.0,
        2.220446049250313e-16,
        0.0,
        0.0,
        0.0,
        0.0,
        1.0
      ],
      "name": "GLTF_SceneRootNode"
    },
    {
      "children": [
        4
      ],
      "matrix": [
        -0.3087471008764962,
        -0.7910057900366302,
        -2.9550623115035088e-08,
        0.0,
        -2.9550610669147676e-08,
        -2.018762192114237e-08,
        0.8491256237030022,
        0.0,
        -0.7910054568873437,
        0.3087469708409427,
        -2.018762192114237e-08,
        0.0,
        -0.03909600153565407,
        0.08489689230918884,
        -0.5070309638977051,
        1.0
      ],
      "name": "Skrew_0"
    },
    {
      "mesh": 0,
      "name": "Object_4"
    },
    {
      "children": [
        6
      ],
      "matrix": [
        0.35915394628478775,
        -0.7694305524471845,
        0.0,
        0.0,
        0.0,
        0.0,
        0.8491259813308716,
        0.0,
        -0.7694305524471845,
        -0.3591539462847878,
        0.0,
        0.0,
        -0.0919964462518692,
        0.08489689230918884,
        -0.5070309638977051,
        1.0
      ],
      "name": "Skrew2_1"
    },
    {
      "mesh": 1,
      "name": "Object_6"
    },
    {
      "children": [
        8
      ],
      "matrix": [
        0.8111297299289338,
        -0.25116427571716987,
        -1.8598884301657373e-09,
        0.0,
        -1.9552570263841623e-08,
        -6.943244841591829e-08,
        0.8491259813308686,
        0.0,
        -0.2511642757171691,
        -0.8111297299289308,
        -7.210900587640111e-08,
        0.0,
        -0.0919964462518692,
        0.03200758993625641,
        -0.5070309638977051,
        1.0
      ],
      "name": "Skrew3_2"
    },
    {
      "mesh": 2,
      "name": "Object_8"
    },
    {
      "children": [
        10
      ],
      "matrix": [
        1.0,
        0.0,
        0.0,
        0.0,
        0.0,
        1.0,
        0.0,
        0.0,
        0.0,
        0.0,
        1.0,
        0.0,
        -0.09199997782707214,
        0.057804085314273834,
        -0.5059999823570251,
        1.0
      ],
      "name": "Corner_3"
    },
    {
      "mesh": 3,
      "name": "Object_10"
    },
    {
      "children": [
        12
      ],
      "matrix": [
        1.0,
        0.0,
        0.0,
        0.0,
        0.0,
        1.8489367961883545,
        0.0,
        0.0,
        0.0,
        0.0,
        1.0,
        0.0,
        0.0,
        0.12023402750492096,
        0.0,
        1.0
      ],
      "name": "Frame_4"
    },
    {
      "mesh": 4,
      "name": "Object_12"
    },
    {
      "children": [
        14
      ],
      "matrix": [
        1.0,
        0.0,
        0.0,
        0.0,
        0.0,
        1.0,
        0.0,
        0.0,
        0.0,
        0.0,
        1.0,
        0.0,
        -0.09200000017881393,
        -0.005471831187605858,
        -0.49699997901916504,
        1.0
      ],
      "name": "Holder_5"
    },
    {
      "mesh": 5,
      "name": "Object_14"
    },
    {
      "children": [
        16
      ],
      "matrix": [
        1.0,
        0.0,
        0.0,
        0.0,
        0.0,
        0.5,
        0.0,
        0.0,
        0.0,
        0.0,
        1.0,
        0.0,
        0.0,
        0.09999996423721313,
        0.0,
        1.0
      ],
      "name": "Wood_6"
    },
    {
      "mesh": 6,
      "name": "Object_16"
    }
  ],
  "scene": 0,
  "scenes": [
    {
      "name": "Sketchfab_Scene",
      "nodes": [
        0
      ]
    }
  ]
}
